<svg width="18" height="12" viewBox="0 0 18 12" fill="none" xmlns="http://www.w3.org/2000/svg">
<path d="M17.3362 1.39312C17.2489 1.18298 17.0819 1.01599 16.8718 0.928724C16.7684 0.884657 16.6574 0.861283 16.545 0.859924H12.245C12.0169 0.859924 11.7982 0.950531 11.6369 1.11181C11.4756 1.27309 11.385 1.49184 11.385 1.71992C11.385 1.94801 11.4756 2.16675 11.6369 2.32804C11.7982 2.48932 12.0169 2.57992 12.245 2.57992H14.4724L9.665 7.38732L6.8356 4.54932C6.75565 4.46872 6.66053 4.40474 6.55574 4.36108C6.45094 4.31742 6.33853 4.29494 6.225 4.29494C6.11147 4.29494 5.99906 4.31742 5.89426 4.36108C5.78946 4.40474 5.69435 4.46872 5.6144 4.54932L0.454399 9.70932C0.373792 9.78927 0.309813 9.88439 0.266152 9.98919C0.222491 10.094 0.200012 10.2064 0.200012 10.3199C0.200012 10.4335 0.222491 10.5459 0.266152 10.6507C0.309813 10.7555 0.373792 10.8506 0.454399 10.9305C0.534347 11.0111 0.629464 11.0751 0.734263 11.1188C0.839062 11.1624 0.951469 11.1849 1.065 11.1849C1.17853 11.1849 1.29094 11.1624 1.39573 11.1188C1.50053 11.0751 1.59565 11.0111 1.6756 10.9305L6.225 6.37252L9.0544 9.21052C9.13435 9.29113 9.22946 9.35511 9.33426 9.39877C9.43906 9.44243 9.55147 9.46491 9.665 9.46491C9.77853 9.46491 9.89094 9.44243 9.99574 9.39877C10.1005 9.35511 10.1957 9.29113 10.2756 9.21052L15.685 3.79252V6.01992C15.685 6.24801 15.7756 6.46675 15.9369 6.62804C16.0982 6.78932 16.3169 6.87992 16.545 6.87992C16.7731 6.87992 16.9918 6.78932 17.1531 6.62804C17.3144 6.46675 17.405 6.24801 17.405 6.01992V1.71992C17.4036 1.60754 17.3803 1.49652 17.3362 1.39312Z" fill="#53B6DD" fill-opacity="0.8"/>
</svg>
