<svg width="21" height="22" viewBox="0 0 21 22" fill="none" xmlns="http://www.w3.org/2000/svg">
<path d="M11.6036 2.96003C7.22623 2.83963 3.64003 6.35703 3.64003 10.7H2.10063C1.71363 10.7 1.52443 11.1644 1.79963 11.431L4.19903 13.839C4.37103 14.011 4.63763 14.011 4.80963 13.839L7.20903 11.431C7.26846 11.3704 7.30861 11.2935 7.32443 11.2101C7.34025 11.1267 7.33102 11.0405 7.29791 10.9623C7.2648 10.8842 7.20929 10.8175 7.13838 10.7709C7.06747 10.7242 6.98433 10.6995 6.89943 10.7H5.36003C5.36003 7.34603 8.09483 4.63703 11.466 4.68003C14.6652 4.72303 17.357 7.41483 17.4 10.614C17.443 13.9766 14.734 16.72 11.38 16.72C9.99543 16.72 8.71403 16.247 7.69923 15.4472C7.53451 15.3175 7.32784 15.2528 7.11853 15.2655C6.90922 15.2782 6.71188 15.3673 6.56403 15.516C6.20283 15.8772 6.22863 16.4878 6.63283 16.7974C7.98407 17.8658 9.65745 18.4448 11.38 18.44C15.723 18.44 19.2404 14.8538 19.12 10.4764C19.0082 6.44303 15.637 3.07183 11.6036 2.96003ZM11.165 7.26003C10.8124 7.26003 10.52 7.55243 10.52 7.90503V11.0698C10.52 11.3708 10.6834 11.6546 10.9414 11.8094L13.6246 13.4004C13.9342 13.581 14.3298 13.4778 14.5104 13.1768C14.691 12.8672 14.5878 12.4716 14.2868 12.291L11.81 10.8204V7.89643C11.81 7.55243 11.5176 7.26003 11.165 7.26003Z" fill="#53B6DD" fill-opacity="0.8"/>
</svg>
