<svg width="20" height="21" viewBox="0 0 20 21" fill="none" xmlns="http://www.w3.org/2000/svg">
<path d="M1.84839 10.9381C1.84839 9.05154 1.84839 8.10869 2.27696 7.32738C2.70387 6.54525 3.48601 6.06064 5.04945 5.08977L6.69779 4.06698C8.35024 3.04089 9.17688 2.52826 10.0901 2.52826C11.0032 2.52826 11.829 3.04089 13.4823 4.06698L15.1307 5.08977C16.6941 6.06064 17.4762 6.54525 17.904 7.32738C18.3317 8.10952 18.3317 9.05154 18.3317 10.9372V12.1916C18.3317 15.4059 18.3317 17.0138 17.3658 18.0127C16.3999 19.0116 14.8463 19.0116 11.7384 19.0116H8.44172C5.33379 19.0116 3.77941 19.0116 2.81431 18.0127C1.84921 17.0138 1.84839 15.4067 1.84839 12.1916V10.9381Z" stroke="white" stroke-width="1.29"/>
<path d="M10.09 13.2424V15.7149" stroke="white" stroke-width="1.29" stroke-linecap="round"/>
</svg>
