<svg width="18" height="18" viewBox="0 0 18 18" fill="none" xmlns="http://www.w3.org/2000/svg">
<path d="M15.75 15.75L12.4928 12.4928M12.4928 12.4928C13.0499 11.9356 13.4919 11.2741 13.7935 10.5462C14.095 9.81819 14.2502 9.03795 14.2502 8.25C14.2502 7.46205 14.095 6.68181 13.7935 5.95384C13.4919 5.22587 13.0499 4.56442 12.4928 4.00725C11.9356 3.45009 11.2742 3.00812 10.5462 2.70658C9.81822 2.40505 9.03798 2.24985 8.25003 2.24985C7.46208 2.24985 6.68184 2.40505 5.95387 2.70658C5.2259 3.00812 4.56445 3.45009 4.00728 4.00725C2.88204 5.1325 2.24988 6.65866 2.24988 8.25C2.24988 9.84134 2.88204 11.3675 4.00728 12.4928C5.13253 13.618 6.65869 14.2502 8.25003 14.2502C9.84137 14.2502 11.3675 13.618 12.4928 12.4928Z" stroke="#53B6DD" stroke-opacity="0.8" stroke-width="2" stroke-linecap="round" stroke-linejoin="round"/>
</svg>
