<svg width="18" height="18" viewBox="0 0 18 18" fill="none" xmlns="http://www.w3.org/2000/svg">
<path d="M8.80002 11.21C9.98744 11.21 10.95 10.2474 10.95 9.06003C10.95 7.87262 9.98744 6.91003 8.80002 6.91003C7.61261 6.91003 6.65002 7.87262 6.65002 9.06003C6.65002 10.2474 7.61261 11.21 8.80002 11.21Z" stroke="#53B6DD" stroke-opacity="0.8" stroke-width="1.29"/>
<path d="M10.0649 2.00224C9.80192 1.89331 9.46795 1.89331 8.80002 1.89331C8.13208 1.89331 7.79812 1.89331 7.5351 2.00224C7.36108 2.07428 7.20296 2.1799 7.06979 2.31308C6.93661 2.44626 6.83099 2.60437 6.75895 2.77839C6.69302 2.93821 6.6665 3.12526 6.65647 3.39688C6.6518 3.59319 6.59742 3.78512 6.4984 3.9547C6.39938 4.12428 6.25897 4.26597 6.0903 4.36653C5.91888 4.4624 5.72594 4.51321 5.52953 4.51421C5.33313 4.51521 5.13968 4.46637 4.96728 4.37226C4.72648 4.24469 4.55233 4.17446 4.37962 4.15153C4.00288 4.10198 3.62189 4.20406 3.32038 4.43533C3.09535 4.60948 2.92765 4.89829 2.59368 5.47664C2.25972 6.05499 2.09202 6.34381 2.05547 6.62689C2.03084 6.81355 2.04323 7.00323 2.09192 7.1851C2.14062 7.36697 2.22467 7.53746 2.33927 7.68684C2.44533 7.82444 2.59368 7.93983 2.82373 8.08459C3.16272 8.29744 3.38058 8.66008 3.38058 9.05998C3.38058 9.45988 3.16272 9.82251 2.82373 10.0346C2.59368 10.1801 2.44462 10.2955 2.33927 10.4331C2.22467 10.5825 2.14062 10.753 2.09192 10.9349C2.04323 11.1167 2.03084 11.3064 2.05547 11.4931C2.09273 11.7754 2.25972 12.065 2.59297 12.6433C2.92765 13.2217 3.09463 13.5105 3.32038 13.6846C3.46976 13.7992 3.64026 13.8833 3.82213 13.932C4.004 13.9807 4.19368 13.9931 4.38033 13.9684C4.55233 13.9455 4.72648 13.8753 4.96728 13.7477C5.13968 13.6536 5.33313 13.6047 5.52953 13.6057C5.72594 13.6067 5.91888 13.6576 6.0903 13.7534C6.43645 13.9541 6.64213 14.3232 6.65647 14.7231C6.6665 14.9954 6.6923 15.1817 6.75895 15.3416C6.83099 15.5156 6.93661 15.6737 7.06979 15.8069C7.20296 15.9401 7.36108 16.0457 7.5351 16.1177C7.79812 16.2266 8.13208 16.2266 8.80002 16.2266C9.46795 16.2266 9.80192 16.2266 10.0649 16.1177C10.239 16.0457 10.3971 15.9401 10.5302 15.8069C10.6634 15.6737 10.769 15.5156 10.8411 15.3416C10.907 15.1817 10.9335 14.9954 10.9436 14.7231C10.9579 14.3232 11.1636 13.9534 11.5097 13.7534C11.6812 13.6576 11.8741 13.6067 12.0705 13.6057C12.2669 13.6047 12.4604 13.6536 12.6328 13.7477C12.8736 13.8753 13.0477 13.9455 13.2197 13.9684C13.4064 13.9931 13.596 13.9807 13.7779 13.932C13.9598 13.8833 14.1303 13.7992 14.2797 13.6846C14.5054 13.5112 14.6724 13.2217 15.0064 12.6433C15.3403 12.065 15.508 11.7761 15.5446 11.4931C15.5692 11.3064 15.5568 11.1167 15.5081 10.9349C15.4594 10.753 15.3754 10.5825 15.2608 10.4331C15.1547 10.2955 15.0064 10.1801 14.7763 10.0354C14.6085 9.93316 14.4695 9.79007 14.3721 9.61949C14.2747 9.4489 14.2222 9.25639 14.2195 9.05998C14.2195 8.66008 14.4373 8.29744 14.7763 8.08531C15.0064 7.93983 15.1554 7.82444 15.2608 7.68684C15.3754 7.53746 15.4594 7.36697 15.5081 7.1851C15.5568 7.00323 15.5692 6.81355 15.5446 6.62689C15.5073 6.34453 15.3403 6.05499 15.0071 5.47664C14.6724 4.89829 14.5054 4.60948 14.2797 4.43533C14.1303 4.32073 13.9598 4.23668 13.7779 4.18798C13.596 4.13929 13.4064 4.1269 13.2197 4.15153C13.0477 4.17446 12.8736 4.24469 12.632 4.37226C12.4597 4.46625 12.2664 4.51502 12.0701 4.51401C11.8739 4.51301 11.6811 4.46227 11.5097 4.36653C11.3411 4.26597 11.2006 4.12428 11.1016 3.9547C11.0026 3.78512 10.9482 3.59319 10.9436 3.39688C10.9335 3.12454 10.9077 2.93821 10.8411 2.77839C10.769 2.60437 10.6634 2.44626 10.5302 2.31308C10.3971 2.1799 10.239 2.07428 10.0649 2.00224Z" stroke="#53B6DD" stroke-opacity="0.8" stroke-width="1.29"/>
</svg>
