<svg width="20" height="20" viewBox="0 0 20 20" fill="none" xmlns="http://www.w3.org/2000/svg">
<g clip-path="url(#clip0_4_12)">
<path fill-rule="evenodd" clip-rule="evenodd" d="M12.8134 8.01491C12.8134 8.85122 12.4812 9.65328 11.8898 10.2446C11.2984 10.836 10.4964 11.1682 9.66005 11.1682C8.82373 11.1682 8.02167 10.836 7.4303 10.2446C6.83894 9.65328 6.50671 8.85122 6.50671 8.01491C6.50671 7.17859 6.83894 6.37653 7.4303 5.78516C8.02167 5.1938 8.82373 4.86157 9.66005 4.86157C10.4964 4.86157 11.2984 5.1938 11.8898 5.78516C12.4812 6.37653 12.8134 7.17859 12.8134 8.01491ZM11.2367 8.01491C11.2367 8.43306 11.0706 8.83409 10.7749 9.12978C10.4792 9.42546 10.0782 9.59157 9.66005 9.59157C9.24189 9.59157 8.84086 9.42546 8.54518 9.12978C8.24949 8.83409 8.08338 8.43306 8.08338 8.01491C8.08338 7.59675 8.24949 7.19572 8.54518 6.90003C8.84086 6.60435 9.24189 6.43824 9.66005 6.43824C10.0782 6.43824 10.4792 6.60435 10.7749 6.90003C11.0706 7.19572 11.2367 7.59675 11.2367 8.01491Z" fill="#53B6DD" fill-opacity="0.8"/>
<path fill-rule="evenodd" clip-rule="evenodd" d="M9.66007 1.70825C4.87094 1.70825 0.988403 5.59079 0.988403 10.3799C0.988403 15.169 4.87094 19.0516 9.66007 19.0516C14.4492 19.0516 18.3317 15.169 18.3317 10.3799C18.3317 5.59079 14.4492 1.70825 9.66007 1.70825ZM2.56507 10.3799C2.56507 12.0275 3.12715 13.5443 4.06921 14.7489C4.73097 13.8802 5.58451 13.1762 6.56321 12.6919C7.54192 12.2075 8.61931 11.9559 9.71131 11.9566C10.7893 11.9553 11.8533 12.2003 12.8222 12.6727C13.7911 13.1451 14.6393 13.8326 15.3022 14.6826C15.9852 13.7868 16.4451 12.7411 16.6438 11.6323C16.8425 10.5234 16.7743 9.3831 16.4449 8.3058C16.1154 7.2285 15.5341 6.24515 14.7491 5.4371C13.9642 4.62905 12.9981 4.01953 11.9308 3.65899C10.8635 3.29844 9.72566 3.19723 8.61148 3.36373C7.49729 3.53023 6.43878 3.95965 5.5235 4.61646C4.60823 5.27327 3.86252 6.13858 3.34807 7.14081C2.83361 8.14304 2.56521 9.25337 2.56507 10.3799ZM9.66007 17.4749C8.0313 17.4776 6.45167 16.9172 5.18864 15.8888C5.69697 15.1609 6.37366 14.5665 7.16111 14.1564C7.94856 13.7463 8.82346 13.5325 9.71131 13.5333C10.5881 13.5325 11.4524 13.7409 12.2324 14.1413C13.0124 14.5417 13.6856 15.1224 14.1961 15.8352C12.9234 16.8971 11.3177 17.4775 9.66007 17.4749Z" fill="#53B6DD" fill-opacity="0.8"/>
</g>
<defs>
<clipPath id="clip0_4_12">
<rect width="18.92" height="18.92" fill="white" transform="translate(0.200012 0.919922)"/>
</clipPath>
</defs>
</svg>
